<?xml version="1.0" standalone="no"?>
<svg xmlns="http://www.w3.org/2000/svg" width="2000" height="2000" viewBox="0 0 2000 2000"><defs><clipPath id="clip-path-dot-color"><rect x="112" y="592" width="48" height="48" transform="rotate(0,136,616)"/><rect x="112" y="688" width="48" height="48" transform="rotate(0,136,712)"/><rect x="112" y="736" width="48" height="48" transform="rotate(0,136,760)"/><rect x="112" y="880" width="48" height="48" transform="rotate(0,136,904)"/><rect x="112" y="1120" width="48" height="48" transform="rotate(0,136,1144)"/><rect x="112" y="1216" width="48" height="48" transform="rotate(0,136,1240)"/><rect x="112" y="1264" width="48" height="48" transform="rotate(0,136,1288)"/><rect x="112" y="1312" width="48" height="48" transform="rotate(0,136,1336)"/><rect x="112" y="1408" width="48" height="48" transform="rotate(0,136,1432)"/><rect x="112" y="1456" width="48" height="48" transform="rotate(0,136,1480)"/><rect x="160" y="496" width="48" height="48" transform="rotate(0,184,520)"/><rect x="160" y="688" width="48" height="48" transform="rotate(0,184,712)"/><rect x="160" y="784" width="48" height="48" transform="rotate(0,184,808)"/><rect x="160" y="880" width="48" height="48" transform="rotate(0,184,904)"/><rect x="160" y="976" width="48" height="48" transform="rotate(0,184,1000)"/><rect x="160" y="1216" width="48" height="48" transform="rotate(0,184,1240)"/><rect x="160" y="1264" width="48" height="48" transform="rotate(0,184,1288)"/><rect x="160" y="1360" width="48" height="48" transform="rotate(0,184,1384)"/><rect x="160" y="1456" width="48" height="48" transform="rotate(0,184,1480)"/><rect x="208" y="544" width="48" height="48" transform="rotate(0,232,568)"/><rect x="208" y="640" width="48" height="48" transform="rotate(0,232,664)"/><rect x="208" y="736" width="48" height="48" transform="rotate(0,232,760)"/><rect x="208" y="880" width="48" height="48" transform="rotate(0,232,904)"/><rect x="208" y="1024" width="48" height="48" transform="rotate(0,232,1048)"/><rect x="208" y="1072" width="48" height="48" transform="rotate(0,232,1096)"/><rect x="208" y="1408" width="48" height="48" transform="rotate(0,232,1432)"/><rect x="208" y="1456" width="48" height="48" transform="rotate(0,232,1480)"/><rect x="256" y="784" width="48" height="48" transform="rotate(0,280,808)"/><rect x="256" y="976" width="48" height="48" transform="rotate(0,280,1000)"/><rect x="256" y="1024" width="48" height="48" transform="rotate(0,280,1048)"/><rect x="256" y="1072" width="48" height="48" transform="rotate(0,280,1096)"/><rect x="256" y="1120" width="48" height="48" transform="rotate(0,280,1144)"/><rect x="256" y="1168" width="48" height="48" transform="rotate(0,280,1192)"/><rect x="256" y="1312" width="48" height="48" transform="rotate(0,280,1336)"/><rect x="256" y="1360" width="48" height="48" transform="rotate(0,280,1384)"/><rect x="256" y="1456" width="48" height="48" transform="rotate(0,280,1480)"/><rect x="304" y="544" width="48" height="48" transform="rotate(0,328,568)"/><rect x="304" y="640" width="48" height="48" transform="rotate(0,328,664)"/><rect x="304" y="736" width="48" height="48" transform="rotate(0,328,760)"/><rect x="304" y="832" width="48" height="48" transform="rotate(0,328,856)"/><rect x="304" y="976" width="48" height="48" transform="rotate(0,328,1000)"/><rect x="304" y="1120" width="48" height="48" transform="rotate(0,328,1144)"/><rect x="304" y="1264" width="48" height="48" transform="rotate(0,328,1288)"/><rect x="304" y="1312" width="48" height="48" transform="rotate(0,328,1336)"/><rect x="304" y="1408" width="48" height="48" transform="rotate(0,328,1432)"/><rect x="352" y="496" width="48" height="48" transform="rotate(0,376,520)"/><rect x="352" y="736" width="48" height="48" transform="rotate(0,376,760)"/><rect x="352" y="832" width="48" height="48" transform="rotate(0,376,856)"/><rect x="352" y="976" width="48" height="48" transform="rotate(0,376,1000)"/><rect x="352" y="1120" width="48" height="48" transform="rotate(0,376,1144)"/><rect x="352" y="1264" width="48" height="48" transform="rotate(0,376,1288)"/><rect x="352" y="1312" width="48" height="48" transform="rotate(0,376,1336)"/><rect x="352" y="1360" width="48" height="48" transform="rotate(0,376,1384)"/><rect x="352" y="1456" width="48" height="48" transform="rotate(0,376,1480)"/><rect x="400" y="496" width="48" height="48" transform="rotate(0,424,520)"/><rect x="400" y="592" width="48" height="48" transform="rotate(0,424,616)"/><rect x="400" y="688" width="48" height="48" transform="rotate(0,424,712)"/><rect x="400" y="784" width="48" height="48" transform="rotate(0,424,808)"/><rect x="400" y="880" width="48" height="48" transform="rotate(0,424,904)"/><rect x="400" y="976" width="48" height="48" transform="rotate(0,424,1000)"/><rect x="400" y="1072" width="48" height="48" transform="rotate(0,424,1096)"/><rect x="400" y="1168" width="48" height="48" transform="rotate(0,424,1192)"/><rect x="400" y="1264" width="48" height="48" transform="rotate(0,424,1288)"/><rect x="400" y="1360" width="48" height="48" transform="rotate(0,424,1384)"/><rect x="400" y="1456" width="48" height="48" transform="rotate(0,424,1480)"/><rect x="448" y="496" width="48" height="48" transform="rotate(0,472,520)"/><rect x="448" y="544" width="48" height="48" transform="rotate(0,472,568)"/><rect x="448" y="640" width="48" height="48" transform="rotate(0,472,664)"/><rect x="448" y="784" width="48" height="48" transform="rotate(0,472,808)"/><rect x="448" y="880" width="48" height="48" transform="rotate(0,472,904)"/><rect x="448" y="928" width="48" height="48" transform="rotate(0,472,952)"/><rect x="448" y="976" width="48" height="48" transform="rotate(0,472,1000)"/><rect x="448" y="1216" width="48" height="48" transform="rotate(0,472,1240)"/><rect x="448" y="1360" width="48" height="48" transform="rotate(0,472,1384)"/><rect x="496" y="304" width="48" height="48" transform="rotate(0,520,328)"/><rect x="496" y="352" width="48" height="48" transform="rotate(0,520,376)"/><rect x="496" y="400" width="48" height="48" transform="rotate(0,520,424)"/><rect x="496" y="448" width="48" height="48" transform="rotate(0,520,472)"/><rect x="496" y="736" width="48" height="48" transform="rotate(0,520,760)"/><rect x="496" y="832" width="48" height="48" transform="rotate(0,520,856)"/><rect x="496" y="880" width="48" height="48" transform="rotate(0,520,904)"/><rect x="496" y="928" width="48" height="48" transform="rotate(0,520,952)"/><rect x="496" y="1024" width="48" height="48" transform="rotate(0,520,1048)"/><rect x="496" y="1216" width="48" height="48" transform="rotate(0,520,1240)"/><rect x="496" y="1264" width="48" height="48" transform="rotate(0,520,1288)"/><rect x="496" y="1312" width="48" height="48" transform="rotate(0,520,1336)"/><rect x="496" y="1360" width="48" height="48" transform="rotate(0,520,1384)"/><rect x="496" y="1408" width="48" height="48" transform="rotate(0,520,1432)"/><rect x="496" y="1552" width="48" height="48" transform="rotate(0,520,1576)"/><rect x="496" y="1600" width="48" height="48" transform="rotate(0,520,1624)"/><rect x="496" y="1792" width="48" height="48" transform="rotate(0,520,1816)"/><rect x="544" y="304" width="48" height="48" transform="rotate(0,568,328)"/><rect x="544" y="448" width="48" height="48" transform="rotate(0,568,472)"/><rect x="544" y="544" width="48" height="48" transform="rotate(0,568,568)"/><rect x="544" y="640" width="48" height="48" transform="rotate(0,568,664)"/><rect x="544" y="688" width="48" height="48" transform="rotate(0,568,712)"/><rect x="544" y="736" width="48" height="48" transform="rotate(0,568,760)"/><rect x="544" y="928" width="48" height="48" transform="rotate(0,568,952)"/><rect x="544" y="1120" width="48" height="48" transform="rotate(0,568,1144)"/><rect x="544" y="1168" width="48" height="48" transform="rotate(0,568,1192)"/><rect x="544" y="1456" width="48" height="48" transform="rotate(0,568,1480)"/><rect x="544" y="1648" width="48" height="48" transform="rotate(0,568,1672)"/><rect x="544" y="1696" width="48" height="48" transform="rotate(0,568,1720)"/><rect x="544" y="1744" width="48" height="48" transform="rotate(0,568,1768)"/><rect x="592" y="304" width="48" height="48" transform="rotate(0,616,328)"/><rect x="592" y="352" width="48" height="48" transform="rotate(0,616,376)"/><rect x="592" y="400" width="48" height="48" transform="rotate(0,616,424)"/><rect x="592" y="448" width="48" height="48" transform="rotate(0,616,472)"/><rect x="592" y="496" width="48" height="48" transform="rotate(0,616,520)"/><rect x="592" y="688" width="48" height="48" transform="rotate(0,616,712)"/><rect x="592" y="832" width="48" height="48" transform="rotate(0,616,856)"/><rect x="592" y="928" width="48" height="48" transform="rotate(0,616,952)"/><rect x="592" y="976" width="48" height="48" transform="rotate(0,616,1000)"/><rect x="592" y="1024" width="48" height="48" transform="rotate(0,616,1048)"/><rect x="592" y="1120" width="48" height="48" transform="rotate(0,616,1144)"/><rect x="592" y="1312" width="48" height="48" transform="rotate(0,616,1336)"/><rect x="592" y="1360" width="48" height="48" transform="rotate(0,616,1384)"/><rect x="592" y="1456" width="48" height="48" transform="rotate(0,616,1480)"/><rect x="592" y="1504" width="48" height="48" transform="rotate(0,616,1528)"/><rect x="592" y="1648" width="48" height="48" transform="rotate(0,616,1672)"/><rect x="592" y="1744" width="48" height="48" transform="rotate(0,616,1768)"/><rect x="592" y="1792" width="48" height="48" transform="rotate(0,616,1816)"/><rect x="640" y="112" width="48" height="48" transform="rotate(0,664,136)"/><rect x="640" y="160" width="48" height="48" transform="rotate(0,664,184)"/><rect x="640" y="256" width="48" height="48" transform="rotate(0,664,280)"/><rect x="640" y="352" width="48" height="48" transform="rotate(0,664,376)"/><rect x="640" y="592" width="48" height="48" transform="rotate(0,664,616)"/><rect x="640" y="640" width="48" height="48" transform="rotate(0,664,664)"/><rect x="640" y="736" width="48" height="48" transform="rotate(0,664,760)"/><rect x="640" y="880" width="48" height="48" transform="rotate(0,664,904)"/><rect x="640" y="1168" width="48" height="48" transform="rotate(0,664,1192)"/><rect x="640" y="1216" width="48" height="48" transform="rotate(0,664,1240)"/><rect x="640" y="1360" width="48" height="48" transform="rotate(0,664,1384)"/><rect x="640" y="1504" width="48" height="48" transform="rotate(0,664,1528)"/><rect x="640" y="1744" width="48" height="48" transform="rotate(0,664,1768)"/><rect x="640" y="1792" width="48" height="48" transform="rotate(0,664,1816)"/><rect x="640" y="1840" width="48" height="48" transform="rotate(0,664,1864)"/><rect x="688" y="160" width="48" height="48" transform="rotate(0,712,184)"/><rect x="688" y="400" width="48" height="48" transform="rotate(0,712,424)"/><rect x="688" y="640" width="48" height="48" transform="rotate(0,712,664)"/><rect x="688" y="688" width="48" height="48" transform="rotate(0,712,712)"/><rect x="688" y="736" width="48" height="48" transform="rotate(0,712,760)"/><rect x="688" y="832" width="48" height="48" transform="rotate(0,712,856)"/><rect x="688" y="880" width="48" height="48" transform="rotate(0,712,904)"/><rect x="688" y="928" width="48" height="48" transform="rotate(0,712,952)"/><rect x="688" y="1120" width="48" height="48" transform="rotate(0,712,1144)"/><rect x="688" y="1168" width="48" height="48" transform="rotate(0,712,1192)"/><rect x="688" y="1216" width="48" height="48" transform="rotate(0,712,1240)"/><rect x="688" y="1408" width="48" height="48" transform="rotate(0,712,1432)"/><rect x="688" y="1456" width="48" height="48" transform="rotate(0,712,1480)"/><rect x="688" y="1504" width="48" height="48" transform="rotate(0,712,1528)"/><rect x="688" y="1552" width="48" height="48" transform="rotate(0,712,1576)"/><rect x="688" y="1600" width="48" height="48" transform="rotate(0,712,1624)"/><rect x="688" y="1744" width="48" height="48" transform="rotate(0,712,1768)"/><rect x="688" y="1840" width="48" height="48" transform="rotate(0,712,1864)"/><rect x="736" y="256" width="48" height="48" transform="rotate(0,760,280)"/><rect x="736" y="304" width="48" height="48" transform="rotate(0,760,328)"/><rect x="736" y="448" width="48" height="48" transform="rotate(0,760,472)"/><rect x="736" y="496" width="48" height="48" transform="rotate(0,760,520)"/><rect x="736" y="544" width="48" height="48" transform="rotate(0,760,568)"/><rect x="736" y="592" width="48" height="48" transform="rotate(0,760,616)"/><rect x="736" y="640" width="48" height="48" transform="rotate(0,760,664)"/><rect x="736" y="736" width="48" height="48" transform="rotate(0,760,760)"/><rect x="736" y="880" width="48" height="48" transform="rotate(0,760,904)"/><rect x="736" y="1024" width="48" height="48" transform="rotate(0,760,1048)"/><rect x="736" y="1072" width="48" height="48" transform="rotate(0,760,1096)"/><rect x="736" y="1120" width="48" height="48" transform="rotate(0,760,1144)"/><rect x="736" y="1168" width="48" height="48" transform="rotate(0,760,1192)"/><rect x="736" y="1216" width="48" height="48" transform="rotate(0,760,1240)"/><rect x="736" y="1312" width="48" height="48" transform="rotate(0,760,1336)"/><rect x="736" y="1408" width="48" height="48" transform="rotate(0,760,1432)"/><rect x="736" y="1456" width="48" height="48" transform="rotate(0,760,1480)"/><rect x="736" y="1504" width="48" height="48" transform="rotate(0,760,1528)"/><rect x="736" y="1600" width="48" height="48" transform="rotate(0,760,1624)"/><rect x="736" y="1648" width="48" height="48" transform="rotate(0,760,1672)"/><rect x="736" y="1744" width="48" height="48" transform="rotate(0,760,1768)"/><rect x="736" y="1792" width="48" height="48" transform="rotate(0,760,1816)"/><rect x="784" y="160" width="48" height="48" transform="rotate(0,808,184)"/><rect x="784" y="208" width="48" height="48" transform="rotate(0,808,232)"/><rect x="784" y="256" width="48" height="48" transform="rotate(0,808,280)"/><rect x="784" y="304" width="48" height="48" transform="rotate(0,808,328)"/><rect x="784" y="352" width="48" height="48" transform="rotate(0,808,376)"/><rect x="784" y="400" width="48" height="48" transform="rotate(0,808,424)"/><rect x="784" y="448" width="48" height="48" transform="rotate(0,808,472)"/><rect x="784" y="496" width="48" height="48" transform="rotate(0,808,520)"/><rect x="784" y="544" width="48" height="48" transform="rotate(0,808,568)"/><rect x="784" y="736" width="48" height="48" transform="rotate(0,808,760)"/><rect x="784" y="784" width="48" height="48" transform="rotate(0,808,808)"/><rect x="784" y="832" width="48" height="48" transform="rotate(0,808,856)"/><rect x="784" y="976" width="48" height="48" transform="rotate(0,808,1000)"/><rect x="784" y="1024" width="48" height="48" transform="rotate(0,808,1048)"/><rect x="784" y="1216" width="48" height="48" transform="rotate(0,808,1240)"/><rect x="784" y="1264" width="48" height="48" transform="rotate(0,808,1288)"/><rect x="784" y="1360" width="48" height="48" transform="rotate(0,808,1384)"/><rect x="784" y="1408" width="48" height="48" transform="rotate(0,808,1432)"/><rect x="784" y="1504" width="48" height="48" transform="rotate(0,808,1528)"/><rect x="784" y="1600" width="48" height="48" transform="rotate(0,808,1624)"/><rect x="784" y="1648" width="48" height="48" transform="rotate(0,808,1672)"/><rect x="784" y="1696" width="48" height="48" transform="rotate(0,808,1720)"/><rect x="784" y="1744" width="48" height="48" transform="rotate(0,808,1768)"/><rect x="832" y="160" width="48" height="48" transform="rotate(0,856,184)"/><rect x="832" y="352" width="48" height="48" transform="rotate(0,856,376)"/><rect x="832" y="448" width="48" height="48" transform="rotate(0,856,472)"/><rect x="832" y="496" width="48" height="48" transform="rotate(0,856,520)"/><rect x="832" y="592" width="48" height="48" transform="rotate(0,856,616)"/><rect x="832" y="640" width="48" height="48" transform="rotate(0,856,664)"/><rect x="832" y="736" width="48" height="48" transform="rotate(0,856,760)"/><rect x="832" y="880" width="48" height="48" transform="rotate(0,856,904)"/><rect x="832" y="1024" width="48" height="48" transform="rotate(0,856,1048)"/><rect x="832" y="1120" width="48" height="48" transform="rotate(0,856,1144)"/><rect x="832" y="1408" width="48" height="48" transform="rotate(0,856,1432)"/><rect x="832" y="1456" width="48" height="48" transform="rotate(0,856,1480)"/><rect x="832" y="1504" width="48" height="48" transform="rotate(0,856,1528)"/><rect x="832" y="1552" width="48" height="48" transform="rotate(0,856,1576)"/><rect x="832" y="1600" width="48" height="48" transform="rotate(0,856,1624)"/><rect x="832" y="1648" width="48" height="48" transform="rotate(0,856,1672)"/><rect x="832" y="1744" width="48" height="48" transform="rotate(0,856,1768)"/><rect x="880" y="304" width="48" height="48" transform="rotate(0,904,328)"/><rect x="880" y="400" width="48" height="48" transform="rotate(0,904,424)"/><rect x="880" y="544" width="48" height="48" transform="rotate(0,904,568)"/><rect x="880" y="640" width="48" height="48" transform="rotate(0,904,664)"/><rect x="880" y="832" width="48" height="48" transform="rotate(0,904,856)"/><rect x="880" y="1024" width="48" height="48" transform="rotate(0,904,1048)"/><rect x="880" y="1216" width="48" height="48" transform="rotate(0,904,1240)"/><rect x="880" y="1264" width="48" height="48" transform="rotate(0,904,1288)"/><rect x="880" y="1408" width="48" height="48" transform="rotate(0,904,1432)"/><rect x="880" y="1552" width="48" height="48" transform="rotate(0,904,1576)"/><rect x="880" y="1696" width="48" height="48" transform="rotate(0,904,1720)"/><rect x="880" y="1744" width="48" height="48" transform="rotate(0,904,1768)"/><rect x="928" y="256" width="48" height="48" transform="rotate(0,952,280)"/><rect x="928" y="352" width="48" height="48" transform="rotate(0,952,376)"/><rect x="928" y="448" width="48" height="48" transform="rotate(0,952,472)"/><rect x="928" y="544" width="48" height="48" transform="rotate(0,952,568)"/><rect x="928" y="592" width="48" height="48" transform="rotate(0,952,616)"/><rect x="928" y="688" width="48" height="48" transform="rotate(0,952,712)"/><rect x="928" y="832" width="48" height="48" transform="rotate(0,952,856)"/><rect x="928" y="880" width="48" height="48" transform="rotate(0,952,904)"/><rect x="928" y="928" width="48" height="48" transform="rotate(0,952,952)"/><rect x="928" y="1024" width="48" height="48" transform="rotate(0,952,1048)"/><rect x="928" y="1120" width="48" height="48" transform="rotate(0,952,1144)"/><rect x="928" y="1216" width="48" height="48" transform="rotate(0,952,1240)"/><rect x="928" y="1264" width="48" height="48" transform="rotate(0,952,1288)"/><rect x="928" y="1312" width="48" height="48" transform="rotate(0,952,1336)"/><rect x="928" y="1360" width="48" height="48" transform="rotate(0,952,1384)"/><rect x="928" y="1408" width="48" height="48" transform="rotate(0,952,1432)"/><rect x="928" y="1456" width="48" height="48" transform="rotate(0,952,1480)"/><rect x="928" y="1648" width="48" height="48" transform="rotate(0,952,1672)"/><rect x="928" y="1696" width="48" height="48" transform="rotate(0,952,1720)"/><rect x="976" y="160" width="48" height="48" transform="rotate(0,1000,184)"/><rect x="976" y="208" width="48" height="48" transform="rotate(0,1000,232)"/><rect x="976" y="256" width="48" height="48" transform="rotate(0,1000,280)"/><rect x="976" y="304" width="48" height="48" transform="rotate(0,1000,328)"/><rect x="976" y="400" width="48" height="48" transform="rotate(0,1000,424)"/><rect x="976" y="448" width="48" height="48" transform="rotate(0,1000,472)"/><rect x="976" y="640" width="48" height="48" transform="rotate(0,1000,664)"/><rect x="976" y="688" width="48" height="48" transform="rotate(0,1000,712)"/><rect x="976" y="880" width="48" height="48" transform="rotate(0,1000,904)"/><rect x="976" y="928" width="48" height="48" transform="rotate(0,1000,952)"/><rect x="976" y="976" width="48" height="48" transform="rotate(0,1000,1000)"/><rect x="976" y="1024" width="48" height="48" transform="rotate(0,1000,1048)"/><rect x="976" y="1072" width="48" height="48" transform="rotate(0,1000,1096)"/><rect x="976" y="1168" width="48" height="48" transform="rotate(0,1000,1192)"/><rect x="976" y="1216" width="48" height="48" transform="rotate(0,1000,1240)"/><rect x="976" y="1360" width="48" height="48" transform="rotate(0,1000,1384)"/><rect x="976" y="1408" width="48" height="48" transform="rotate(0,1000,1432)"/><rect x="976" y="1552" width="48" height="48" transform="rotate(0,1000,1576)"/><rect x="976" y="1600" width="48" height="48" transform="rotate(0,1000,1624)"/><rect x="976" y="1696" width="48" height="48" transform="rotate(0,1000,1720)"/><rect x="976" y="1744" width="48" height="48" transform="rotate(0,1000,1768)"/><rect x="1024" y="160" width="48" height="48" transform="rotate(0,1048,184)"/><rect x="1024" y="208" width="48" height="48" transform="rotate(0,1048,232)"/><rect x="1024" y="256" width="48" height="48" transform="rotate(0,1048,280)"/><rect x="1024" y="304" width="48" height="48" transform="rotate(0,1048,328)"/><rect x="1024" y="496" width="48" height="48" transform="rotate(0,1048,520)"/><rect x="1024" y="592" width="48" height="48" transform="rotate(0,1048,616)"/><rect x="1024" y="736" width="48" height="48" transform="rotate(0,1048,760)"/><rect x="1024" y="976" width="48" height="48" transform="rotate(0,1048,1000)"/><rect x="1024" y="1120" width="48" height="48" transform="rotate(0,1048,1144)"/><rect x="1024" y="1216" width="48" height="48" transform="rotate(0,1048,1240)"/><rect x="1024" y="1264" width="48" height="48" transform="rotate(0,1048,1288)"/><rect x="1024" y="1552" width="48" height="48" transform="rotate(0,1048,1576)"/><rect x="1024" y="1600" width="48" height="48" transform="rotate(0,1048,1624)"/><rect x="1024" y="1744" width="48" height="48" transform="rotate(0,1048,1768)"/><rect x="1024" y="1840" width="48" height="48" transform="rotate(0,1048,1864)"/><rect x="1072" y="208" width="48" height="48" transform="rotate(0,1096,232)"/><rect x="1072" y="256" width="48" height="48" transform="rotate(0,1096,280)"/><rect x="1072" y="352" width="48" height="48" transform="rotate(0,1096,376)"/><rect x="1072" y="400" width="48" height="48" transform="rotate(0,1096,424)"/><rect x="1072" y="496" width="48" height="48" transform="rotate(0,1096,520)"/><rect x="1072" y="688" width="48" height="48" transform="rotate(0,1096,712)"/><rect x="1072" y="736" width="48" height="48" transform="rotate(0,1096,760)"/><rect x="1072" y="784" width="48" height="48" transform="rotate(0,1096,808)"/><rect x="1072" y="832" width="48" height="48" transform="rotate(0,1096,856)"/><rect x="1072" y="928" width="48" height="48" transform="rotate(0,1096,952)"/><rect x="1072" y="976" width="48" height="48" transform="rotate(0,1096,1000)"/><rect x="1072" y="1072" width="48" height="48" transform="rotate(0,1096,1096)"/><rect x="1072" y="1168" width="48" height="48" transform="rotate(0,1096,1192)"/><rect x="1072" y="1216" width="48" height="48" transform="rotate(0,1096,1240)"/><rect x="1072" y="1504" width="48" height="48" transform="rotate(0,1096,1528)"/><rect x="1072" y="1552" width="48" height="48" transform="rotate(0,1096,1576)"/><rect x="1072" y="1744" width="48" height="48" transform="rotate(0,1096,1768)"/><rect x="1072" y="1792" width="48" height="48" transform="rotate(0,1096,1816)"/><rect x="1072" y="1840" width="48" height="48" transform="rotate(0,1096,1864)"/><rect x="1120" y="256" width="48" height="48" transform="rotate(0,1144,280)"/><rect x="1120" y="304" width="48" height="48" transform="rotate(0,1144,328)"/><rect x="1120" y="448" width="48" height="48" transform="rotate(0,1144,472)"/><rect x="1120" y="544" width="48" height="48" transform="rotate(0,1144,568)"/><rect x="1120" y="640" width="48" height="48" transform="rotate(0,1144,664)"/><rect x="1120" y="736" width="48" height="48" transform="rotate(0,1144,760)"/><rect x="1120" y="880" width="48" height="48" transform="rotate(0,1144,904)"/><rect x="1120" y="928" width="48" height="48" transform="rotate(0,1144,952)"/><rect x="1120" y="1216" width="48" height="48" transform="rotate(0,1144,1240)"/><rect x="1120" y="1408" width="48" height="48" transform="rotate(0,1144,1432)"/><rect x="1120" y="1504" width="48" height="48" transform="rotate(0,1144,1528)"/><rect x="1120" y="1648" width="48" height="48" transform="rotate(0,1144,1672)"/><rect x="1120" y="1696" width="48" height="48" transform="rotate(0,1144,1720)"/><rect x="1120" y="1744" width="48" height="48" transform="rotate(0,1144,1768)"/><rect x="1168" y="160" width="48" height="48" transform="rotate(0,1192,184)"/><rect x="1168" y="352" width="48" height="48" transform="rotate(0,1192,376)"/><rect x="1168" y="400" width="48" height="48" transform="rotate(0,1192,424)"/><rect x="1168" y="448" width="48" height="48" transform="rotate(0,1192,472)"/><rect x="1168" y="496" width="48" height="48" transform="rotate(0,1192,520)"/><rect x="1168" y="544" width="48" height="48" transform="rotate(0,1192,568)"/><rect x="1168" y="592" width="48" height="48" transform="rotate(0,1192,616)"/><rect x="1168" y="832" width="48" height="48" transform="rotate(0,1192,856)"/><rect x="1168" y="880" width="48" height="48" transform="rotate(0,1192,904)"/><rect x="1168" y="928" width="48" height="48" transform="rotate(0,1192,952)"/><rect x="1168" y="976" width="48" height="48" transform="rotate(0,1192,1000)"/><rect x="1168" y="1024" width="48" height="48" transform="rotate(0,1192,1048)"/><rect x="1168" y="1168" width="48" height="48" transform="rotate(0,1192,1192)"/><rect x="1168" y="1216" width="48" height="48" transform="rotate(0,1192,1240)"/><rect x="1168" y="1312" width="48" height="48" transform="rotate(0,1192,1336)"/><rect x="1168" y="1360" width="48" height="48" transform="rotate(0,1192,1384)"/><rect x="1168" y="1408" width="48" height="48" transform="rotate(0,1192,1432)"/><rect x="1168" y="1456" width="48" height="48" transform="rotate(0,1192,1480)"/><rect x="1168" y="1696" width="48" height="48" transform="rotate(0,1192,1720)"/><rect x="1168" y="1792" width="48" height="48" transform="rotate(0,1192,1816)"/><rect x="1216" y="112" width="48" height="48" transform="rotate(0,1240,136)"/><rect x="1216" y="160" width="48" height="48" transform="rotate(0,1240,184)"/><rect x="1216" y="208" width="48" height="48" transform="rotate(0,1240,232)"/><rect x="1216" y="304" width="48" height="48" transform="rotate(0,1240,328)"/><rect x="1216" y="496" width="48" height="48" transform="rotate(0,1240,520)"/><rect x="1216" y="592" width="48" height="48" transform="rotate(0,1240,616)"/><rect x="1216" y="640" width="48" height="48" transform="rotate(0,1240,664)"/><rect x="1216" y="736" width="48" height="48" transform="rotate(0,1240,760)"/><rect x="1216" y="832" width="48" height="48" transform="rotate(0,1240,856)"/><rect x="1216" y="976" width="48" height="48" transform="rotate(0,1240,1000)"/><rect x="1216" y="1072" width="48" height="48" transform="rotate(0,1240,1096)"/><rect x="1216" y="1216" width="48" height="48" transform="rotate(0,1240,1240)"/><rect x="1216" y="1312" width="48" height="48" transform="rotate(0,1240,1336)"/><rect x="1216" y="1456" width="48" height="48" transform="rotate(0,1240,1480)"/><rect x="1216" y="1504" width="48" height="48" transform="rotate(0,1240,1528)"/><rect x="1216" y="1600" width="48" height="48" transform="rotate(0,1240,1624)"/><rect x="1216" y="1744" width="48" height="48" transform="rotate(0,1240,1768)"/><rect x="1216" y="1792" width="48" height="48" transform="rotate(0,1240,1816)"/><rect x="1264" y="112" width="48" height="48" transform="rotate(0,1288,136)"/><rect x="1264" y="208" width="48" height="48" transform="rotate(0,1288,232)"/><rect x="1264" y="304" width="48" height="48" transform="rotate(0,1288,328)"/><rect x="1264" y="400" width="48" height="48" transform="rotate(0,1288,424)"/><rect x="1264" y="448" width="48" height="48" transform="rotate(0,1288,472)"/><rect x="1264" y="688" width="48" height="48" transform="rotate(0,1288,712)"/><rect x="1264" y="736" width="48" height="48" transform="rotate(0,1288,760)"/><rect x="1264" y="880" width="48" height="48" transform="rotate(0,1288,904)"/><rect x="1264" y="976" width="48" height="48" transform="rotate(0,1288,1000)"/><rect x="1264" y="1216" width="48" height="48" transform="rotate(0,1288,1240)"/><rect x="1264" y="1264" width="48" height="48" transform="rotate(0,1288,1288)"/><rect x="1264" y="1312" width="48" height="48" transform="rotate(0,1288,1336)"/><rect x="1264" y="1408" width="48" height="48" transform="rotate(0,1288,1432)"/><rect x="1264" y="1552" width="48" height="48" transform="rotate(0,1288,1576)"/><rect x="1264" y="1744" width="48" height="48" transform="rotate(0,1288,1768)"/><rect x="1264" y="1792" width="48" height="48" transform="rotate(0,1288,1816)"/><rect x="1312" y="112" width="48" height="48" transform="rotate(0,1336,136)"/><rect x="1312" y="160" width="48" height="48" transform="rotate(0,1336,184)"/><rect x="1312" y="256" width="48" height="48" transform="rotate(0,1336,280)"/><rect x="1312" y="496" width="48" height="48" transform="rotate(0,1336,520)"/><rect x="1312" y="592" width="48" height="48" transform="rotate(0,1336,616)"/><rect x="1312" y="640" width="48" height="48" transform="rotate(0,1336,664)"/><rect x="1312" y="784" width="48" height="48" transform="rotate(0,1336,808)"/><rect x="1312" y="832" width="48" height="48" transform="rotate(0,1336,856)"/><rect x="1312" y="880" width="48" height="48" transform="rotate(0,1336,904)"/><rect x="1312" y="1024" width="48" height="48" transform="rotate(0,1336,1048)"/><rect x="1312" y="1072" width="48" height="48" transform="rotate(0,1336,1096)"/><rect x="1312" y="1120" width="48" height="48" transform="rotate(0,1336,1144)"/><rect x="1312" y="1312" width="48" height="48" transform="rotate(0,1336,1336)"/><rect x="1312" y="1360" width="48" height="48" transform="rotate(0,1336,1384)"/><rect x="1312" y="1648" width="48" height="48" transform="rotate(0,1336,1672)"/><rect x="1360" y="304" width="48" height="48" transform="rotate(0,1384,328)"/><rect x="1360" y="400" width="48" height="48" transform="rotate(0,1384,424)"/><rect x="1360" y="448" width="48" height="48" transform="rotate(0,1384,472)"/><rect x="1360" y="496" width="48" height="48" transform="rotate(0,1384,520)"/><rect x="1360" y="544" width="48" height="48" transform="rotate(0,1384,568)"/><rect x="1360" y="592" width="48" height="48" transform="rotate(0,1384,616)"/><rect x="1360" y="688" width="48" height="48" transform="rotate(0,1384,712)"/><rect x="1360" y="736" width="48" height="48" transform="rotate(0,1384,760)"/><rect x="1360" y="832" width="48" height="48" transform="rotate(0,1384,856)"/><rect x="1360" y="880" width="48" height="48" transform="rotate(0,1384,904)"/><rect x="1360" y="976" width="48" height="48" transform="rotate(0,1384,1000)"/><rect x="1360" y="1120" width="48" height="48" transform="rotate(0,1384,1144)"/><rect x="1360" y="1312" width="48" height="48" transform="rotate(0,1384,1336)"/><rect x="1360" y="1408" width="48" height="48" transform="rotate(0,1384,1432)"/><rect x="1360" y="1504" width="48" height="48" transform="rotate(0,1384,1528)"/><rect x="1360" y="1600" width="48" height="48" transform="rotate(0,1384,1624)"/><rect x="1408" y="544" width="48" height="48" transform="rotate(0,1432,568)"/><rect x="1408" y="640" width="48" height="48" transform="rotate(0,1432,664)"/><rect x="1408" y="832" width="48" height="48" transform="rotate(0,1432,856)"/><rect x="1408" y="880" width="48" height="48" transform="rotate(0,1432,904)"/><rect x="1408" y="1072" width="48" height="48" transform="rotate(0,1432,1096)"/><rect x="1408" y="1120" width="48" height="48" transform="rotate(0,1432,1144)"/><rect x="1408" y="1168" width="48" height="48" transform="rotate(0,1432,1192)"/><rect x="1408" y="1264" width="48" height="48" transform="rotate(0,1432,1288)"/><rect x="1408" y="1552" width="48" height="48" transform="rotate(0,1432,1576)"/><rect x="1408" y="1744" width="48" height="48" transform="rotate(0,1432,1768)"/><rect x="1456" y="112" width="48" height="48" transform="rotate(0,1480,136)"/><rect x="1456" y="160" width="48" height="48" transform="rotate(0,1480,184)"/><rect x="1456" y="208" width="48" height="48" transform="rotate(0,1480,232)"/><rect x="1456" y="256" width="48" height="48" transform="rotate(0,1480,280)"/><rect x="1456" y="400" width="48" height="48" transform="rotate(0,1480,424)"/><rect x="1456" y="448" width="48" height="48" transform="rotate(0,1480,472)"/><rect x="1456" y="496" width="48" height="48" transform="rotate(0,1480,520)"/><rect x="1456" y="544" width="48" height="48" transform="rotate(0,1480,568)"/><rect x="1456" y="592" width="48" height="48" transform="rotate(0,1480,616)"/><rect x="1456" y="736" width="48" height="48" transform="rotate(0,1480,760)"/><rect x="1456" y="784" width="48" height="48" transform="rotate(0,1480,808)"/><rect x="1456" y="928" width="48" height="48" transform="rotate(0,1480,952)"/><rect x="1456" y="976" width="48" height="48" transform="rotate(0,1480,1000)"/><rect x="1456" y="1024" width="48" height="48" transform="rotate(0,1480,1048)"/><rect x="1456" y="1072" width="48" height="48" transform="rotate(0,1480,1096)"/><rect x="1456" y="1168" width="48" height="48" transform="rotate(0,1480,1192)"/><rect x="1456" y="1216" width="48" height="48" transform="rotate(0,1480,1240)"/><rect x="1456" y="1264" width="48" height="48" transform="rotate(0,1480,1288)"/><rect x="1456" y="1408" width="48" height="48" transform="rotate(0,1480,1432)"/><rect x="1456" y="1456" width="48" height="48" transform="rotate(0,1480,1480)"/><rect x="1456" y="1504" width="48" height="48" transform="rotate(0,1480,1528)"/><rect x="1456" y="1552" width="48" height="48" transform="rotate(0,1480,1576)"/><rect x="1456" y="1600" width="48" height="48" transform="rotate(0,1480,1624)"/><rect x="1456" y="1648" width="48" height="48" transform="rotate(0,1480,1672)"/><rect x="1456" y="1744" width="48" height="48" transform="rotate(0,1480,1768)"/><rect x="1456" y="1792" width="48" height="48" transform="rotate(0,1480,1816)"/><rect x="1456" y="1840" width="48" height="48" transform="rotate(0,1480,1864)"/><rect x="1504" y="496" width="48" height="48" transform="rotate(0,1528,520)"/><rect x="1504" y="784" width="48" height="48" transform="rotate(0,1528,808)"/><rect x="1504" y="976" width="48" height="48" transform="rotate(0,1528,1000)"/><rect x="1504" y="1024" width="48" height="48" transform="rotate(0,1528,1048)"/><rect x="1504" y="1120" width="48" height="48" transform="rotate(0,1528,1144)"/><rect x="1504" y="1168" width="48" height="48" transform="rotate(0,1528,1192)"/><rect x="1504" y="1216" width="48" height="48" transform="rotate(0,1528,1240)"/><rect x="1504" y="1360" width="48" height="48" transform="rotate(0,1528,1384)"/><rect x="1504" y="1456" width="48" height="48" transform="rotate(0,1528,1480)"/><rect x="1504" y="1648" width="48" height="48" transform="rotate(0,1528,1672)"/><rect x="1504" y="1696" width="48" height="48" transform="rotate(0,1528,1720)"/><rect x="1504" y="1792" width="48" height="48" transform="rotate(0,1528,1816)"/><rect x="1552" y="496" width="48" height="48" transform="rotate(0,1576,520)"/><rect x="1552" y="592" width="48" height="48" transform="rotate(0,1576,616)"/><rect x="1552" y="832" width="48" height="48" transform="rotate(0,1576,856)"/><rect x="1552" y="928" width="48" height="48" transform="rotate(0,1576,952)"/><rect x="1552" y="976" width="48" height="48" transform="rotate(0,1576,1000)"/><rect x="1552" y="1024" width="48" height="48" transform="rotate(0,1576,1048)"/><rect x="1552" y="1120" width="48" height="48" transform="rotate(0,1576,1144)"/><rect x="1552" y="1168" width="48" height="48" transform="rotate(0,1576,1192)"/><rect x="1552" y="1216" width="48" height="48" transform="rotate(0,1576,1240)"/><rect x="1552" y="1264" width="48" height="48" transform="rotate(0,1576,1288)"/><rect x="1552" y="1456" width="48" height="48" transform="rotate(0,1576,1480)"/><rect x="1552" y="1552" width="48" height="48" transform="rotate(0,1576,1576)"/><rect x="1552" y="1648" width="48" height="48" transform="rotate(0,1576,1672)"/><rect x="1552" y="1696" width="48" height="48" transform="rotate(0,1576,1720)"/><rect x="1552" y="1744" width="48" height="48" transform="rotate(0,1576,1768)"/><rect x="1600" y="496" width="48" height="48" transform="rotate(0,1624,520)"/><rect x="1600" y="640" width="48" height="48" transform="rotate(0,1624,664)"/><rect x="1600" y="688" width="48" height="48" transform="rotate(0,1624,712)"/><rect x="1600" y="736" width="48" height="48" transform="rotate(0,1624,760)"/><rect x="1600" y="832" width="48" height="48" transform="rotate(0,1624,856)"/><rect x="1600" y="880" width="48" height="48" transform="rotate(0,1624,904)"/><rect x="1600" y="928" width="48" height="48" transform="rotate(0,1624,952)"/><rect x="1600" y="976" width="48" height="48" transform="rotate(0,1624,1000)"/><rect x="1600" y="1024" width="48" height="48" transform="rotate(0,1624,1048)"/><rect x="1600" y="1168" width="48" height="48" transform="rotate(0,1624,1192)"/><rect x="1600" y="1216" width="48" height="48" transform="rotate(0,1624,1240)"/><rect x="1600" y="1456" width="48" height="48" transform="rotate(0,1624,1480)"/><rect x="1600" y="1648" width="48" height="48" transform="rotate(0,1624,1672)"/><rect x="1600" y="1744" width="48" height="48" transform="rotate(0,1624,1768)"/><rect x="1648" y="496" width="48" height="48" transform="rotate(0,1672,520)"/><rect x="1648" y="544" width="48" height="48" transform="rotate(0,1672,568)"/><rect x="1648" y="592" width="48" height="48" transform="rotate(0,1672,616)"/><rect x="1648" y="736" width="48" height="48" transform="rotate(0,1672,760)"/><rect x="1648" y="832" width="48" height="48" transform="rotate(0,1672,856)"/><rect x="1648" y="880" width="48" height="48" transform="rotate(0,1672,904)"/><rect x="1648" y="976" width="48" height="48" transform="rotate(0,1672,1000)"/><rect x="1648" y="1072" width="48" height="48" transform="rotate(0,1672,1096)"/><rect x="1648" y="1456" width="48" height="48" transform="rotate(0,1672,1480)"/><rect x="1648" y="1504" width="48" height="48" transform="rotate(0,1672,1528)"/><rect x="1648" y="1552" width="48" height="48" transform="rotate(0,1672,1576)"/><rect x="1648" y="1600" width="48" height="48" transform="rotate(0,1672,1624)"/><rect x="1648" y="1648" width="48" height="48" transform="rotate(0,1672,1672)"/><rect x="1648" y="1696" width="48" height="48" transform="rotate(0,1672,1720)"/><rect x="1648" y="1744" width="48" height="48" transform="rotate(0,1672,1768)"/><rect x="1648" y="1792" width="48" height="48" transform="rotate(0,1672,1816)"/><rect x="1648" y="1840" width="48" height="48" transform="rotate(0,1672,1864)"/><rect x="1696" y="544" width="48" height="48" transform="rotate(0,1720,568)"/><rect x="1696" y="640" width="48" height="48" transform="rotate(0,1720,664)"/><rect x="1696" y="688" width="48" height="48" transform="rotate(0,1720,712)"/><rect x="1696" y="736" width="48" height="48" transform="rotate(0,1720,760)"/><rect x="1696" y="784" width="48" height="48" transform="rotate(0,1720,808)"/><rect x="1696" y="832" width="48" height="48" transform="rotate(0,1720,856)"/><rect x="1696" y="928" width="48" height="48" transform="rotate(0,1720,952)"/><rect x="1696" y="1024" width="48" height="48" transform="rotate(0,1720,1048)"/><rect x="1696" y="1072" width="48" height="48" transform="rotate(0,1720,1096)"/><rect x="1696" y="1120" width="48" height="48" transform="rotate(0,1720,1144)"/><rect x="1696" y="1264" width="48" height="48" transform="rotate(0,1720,1288)"/><rect x="1696" y="1312" width="48" height="48" transform="rotate(0,1720,1336)"/><rect x="1696" y="1456" width="48" height="48" transform="rotate(0,1720,1480)"/><rect x="1696" y="1552" width="48" height="48" transform="rotate(0,1720,1576)"/><rect x="1696" y="1600" width="48" height="48" transform="rotate(0,1720,1624)"/><rect x="1696" y="1696" width="48" height="48" transform="rotate(0,1720,1720)"/><rect x="1696" y="1744" width="48" height="48" transform="rotate(0,1720,1768)"/><rect x="1744" y="592" width="48" height="48" transform="rotate(0,1768,616)"/><rect x="1744" y="640" width="48" height="48" transform="rotate(0,1768,664)"/><rect x="1744" y="736" width="48" height="48" transform="rotate(0,1768,760)"/><rect x="1744" y="880" width="48" height="48" transform="rotate(0,1768,904)"/><rect x="1744" y="928" width="48" height="48" transform="rotate(0,1768,952)"/><rect x="1744" y="976" width="48" height="48" transform="rotate(0,1768,1000)"/><rect x="1744" y="1024" width="48" height="48" transform="rotate(0,1768,1048)"/><rect x="1744" y="1216" width="48" height="48" transform="rotate(0,1768,1240)"/><rect x="1744" y="1264" width="48" height="48" transform="rotate(0,1768,1288)"/><rect x="1744" y="1360" width="48" height="48" transform="rotate(0,1768,1384)"/><rect x="1744" y="1456" width="48" height="48" transform="rotate(0,1768,1480)"/><rect x="1744" y="1552" width="48" height="48" transform="rotate(0,1768,1576)"/><rect x="1744" y="1600" width="48" height="48" transform="rotate(0,1768,1624)"/><rect x="1744" y="1696" width="48" height="48" transform="rotate(0,1768,1720)"/><rect x="1744" y="1744" width="48" height="48" transform="rotate(0,1768,1768)"/><rect x="1744" y="1792" width="48" height="48" transform="rotate(0,1768,1816)"/><rect x="1792" y="544" width="48" height="48" transform="rotate(0,1816,568)"/><rect x="1792" y="592" width="48" height="48" transform="rotate(0,1816,616)"/><rect x="1792" y="832" width="48" height="48" transform="rotate(0,1816,856)"/><rect x="1792" y="880" width="48" height="48" transform="rotate(0,1816,904)"/><rect x="1792" y="928" width="48" height="48" transform="rotate(0,1816,952)"/><rect x="1792" y="1072" width="48" height="48" transform="rotate(0,1816,1096)"/><rect x="1792" y="1168" width="48" height="48" transform="rotate(0,1816,1192)"/><rect x="1792" y="1216" width="48" height="48" transform="rotate(0,1816,1240)"/><rect x="1792" y="1360" width="48" height="48" transform="rotate(0,1816,1384)"/><rect x="1792" y="1408" width="48" height="48" transform="rotate(0,1816,1432)"/><rect x="1792" y="1552" width="48" height="48" transform="rotate(0,1816,1576)"/><rect x="1792" y="1600" width="48" height="48" transform="rotate(0,1816,1624)"/><rect x="1792" y="1744" width="48" height="48" transform="rotate(0,1816,1768)"/><rect x="1792" y="1792" width="48" height="48" transform="rotate(0,1816,1816)"/><rect x="1840" y="640" width="48" height="48" transform="rotate(0,1864,664)"/><rect x="1840" y="688" width="48" height="48" transform="rotate(0,1864,712)"/><rect x="1840" y="784" width="48" height="48" transform="rotate(0,1864,808)"/><rect x="1840" y="880" width="48" height="48" transform="rotate(0,1864,904)"/><rect x="1840" y="1024" width="48" height="48" transform="rotate(0,1864,1048)"/><rect x="1840" y="1120" width="48" height="48" transform="rotate(0,1864,1144)"/><rect x="1840" y="1168" width="48" height="48" transform="rotate(0,1864,1192)"/><rect x="1840" y="1264" width="48" height="48" transform="rotate(0,1864,1288)"/><rect x="1840" y="1408" width="48" height="48" transform="rotate(0,1864,1432)"/><rect x="1840" y="1600" width="48" height="48" transform="rotate(0,1864,1624)"/><rect x="1840" y="1744" width="48" height="48" transform="rotate(0,1864,1768)"/><rect x="1840" y="1792" width="48" height="48" transform="rotate(0,1864,1816)"/><rect x="1840" y="1840" width="48" height="48" transform="rotate(0,1864,1864)"/></clipPath><clipPath id="clip-path-corners-square-color-0-0"><rect x="112" y="112" width="48" height="48" transform="rotate(0,136,136)"/><rect x="112" y="160" width="48" height="48" transform="rotate(0,136,184)"/><rect x="112" y="208" width="48" height="48" transform="rotate(0,136,232)"/><rect x="112" y="256" width="48" height="48" transform="rotate(0,136,280)"/><rect x="112" y="304" width="48" height="48" transform="rotate(0,136,328)"/><rect x="112" y="352" width="48" height="48" transform="rotate(0,136,376)"/><rect x="112" y="400" width="48" height="48" transform="rotate(0,136,424)"/><rect x="160" y="112" width="48" height="48" transform="rotate(0,184,136)"/><rect x="160" y="400" width="48" height="48" transform="rotate(0,184,424)"/><rect x="208" y="112" width="48" height="48" transform="rotate(0,232,136)"/><rect x="208" y="400" width="48" height="48" transform="rotate(0,232,424)"/><rect x="256" y="112" width="48" height="48" transform="rotate(0,280,136)"/><rect x="256" y="400" width="48" height="48" transform="rotate(0,280,424)"/><rect x="304" y="112" width="48" height="48" transform="rotate(0,328,136)"/><rect x="304" y="400" width="48" height="48" transform="rotate(0,328,424)"/><rect x="352" y="112" width="48" height="48" transform="rotate(0,376,136)"/><rect x="352" y="400" width="48" height="48" transform="rotate(0,376,424)"/><rect x="400" y="112" width="48" height="48" transform="rotate(0,424,136)"/><rect x="400" y="160" width="48" height="48" transform="rotate(0,424,184)"/><rect x="400" y="208" width="48" height="48" transform="rotate(0,424,232)"/><rect x="400" y="256" width="48" height="48" transform="rotate(0,424,280)"/><rect x="400" y="304" width="48" height="48" transform="rotate(0,424,328)"/><rect x="400" y="352" width="48" height="48" transform="rotate(0,424,376)"/><rect x="400" y="400" width="48" height="48" transform="rotate(0,424,424)"/></clipPath><clipPath id="clip-path-corners-dot-color-0-0"><rect x="208" y="208" width="48" height="48" transform="rotate(0,232,232)"/><rect x="208" y="256" width="48" height="48" transform="rotate(0,232,280)"/><rect x="208" y="304" width="48" height="48" transform="rotate(0,232,328)"/><rect x="256" y="208" width="48" height="48" transform="rotate(0,280,232)"/><rect x="256" y="256" width="48" height="48" transform="rotate(0,280,280)"/><rect x="256" y="304" width="48" height="48" transform="rotate(0,280,328)"/><rect x="304" y="208" width="48" height="48" transform="rotate(0,328,232)"/><rect x="304" y="256" width="48" height="48" transform="rotate(0,328,280)"/><rect x="304" y="304" width="48" height="48" transform="rotate(0,328,328)"/></clipPath><clipPath id="clip-path-corners-square-color-1-0"><rect x="1552" y="112" width="48" height="48" transform="rotate(0,1576,136)"/><rect x="1552" y="160" width="48" height="48" transform="rotate(0,1576,184)"/><rect x="1552" y="208" width="48" height="48" transform="rotate(0,1576,232)"/><rect x="1552" y="256" width="48" height="48" transform="rotate(0,1576,280)"/><rect x="1552" y="304" width="48" height="48" transform="rotate(0,1576,328)"/><rect x="1552" y="352" width="48" height="48" transform="rotate(0,1576,376)"/><rect x="1552" y="400" width="48" height="48" transform="rotate(0,1576,424)"/><rect x="1600" y="112" width="48" height="48" transform="rotate(0,1624,136)"/><rect x="1600" y="400" width="48" height="48" transform="rotate(0,1624,424)"/><rect x="1648" y="112" width="48" height="48" transform="rotate(0,1672,136)"/><rect x="1648" y="400" width="48" height="48" transform="rotate(0,1672,424)"/><rect x="1696" y="112" width="48" height="48" transform="rotate(0,1720,136)"/><rect x="1696" y="400" width="48" height="48" transform="rotate(0,1720,424)"/><rect x="1744" y="112" width="48" height="48" transform="rotate(0,1768,136)"/><rect x="1744" y="400" width="48" height="48" transform="rotate(0,1768,424)"/><rect x="1792" y="112" width="48" height="48" transform="rotate(0,1816,136)"/><rect x="1792" y="400" width="48" height="48" transform="rotate(0,1816,424)"/><rect x="1840" y="112" width="48" height="48" transform="rotate(0,1864,136)"/><rect x="1840" y="160" width="48" height="48" transform="rotate(0,1864,184)"/><rect x="1840" y="208" width="48" height="48" transform="rotate(0,1864,232)"/><rect x="1840" y="256" width="48" height="48" transform="rotate(0,1864,280)"/><rect x="1840" y="304" width="48" height="48" transform="rotate(0,1864,328)"/><rect x="1840" y="352" width="48" height="48" transform="rotate(0,1864,376)"/><rect x="1840" y="400" width="48" height="48" transform="rotate(0,1864,424)"/></clipPath><clipPath id="clip-path-corners-dot-color-1-0"><rect x="1648" y="208" width="48" height="48" transform="rotate(0,1672,232)"/><rect x="1648" y="256" width="48" height="48" transform="rotate(0,1672,280)"/><rect x="1648" y="304" width="48" height="48" transform="rotate(0,1672,328)"/><rect x="1696" y="208" width="48" height="48" transform="rotate(0,1720,232)"/><rect x="1696" y="256" width="48" height="48" transform="rotate(0,1720,280)"/><rect x="1696" y="304" width="48" height="48" transform="rotate(0,1720,328)"/><rect x="1744" y="208" width="48" height="48" transform="rotate(0,1768,232)"/><rect x="1744" y="256" width="48" height="48" transform="rotate(0,1768,280)"/><rect x="1744" y="304" width="48" height="48" transform="rotate(0,1768,328)"/></clipPath><clipPath id="clip-path-corners-square-color-0-1"><rect x="112" y="1552" width="48" height="48" transform="rotate(0,136,1576)"/><rect x="112" y="1600" width="48" height="48" transform="rotate(0,136,1624)"/><rect x="112" y="1648" width="48" height="48" transform="rotate(0,136,1672)"/><rect x="112" y="1696" width="48" height="48" transform="rotate(0,136,1720)"/><rect x="112" y="1744" width="48" height="48" transform="rotate(0,136,1768)"/><rect x="112" y="1792" width="48" height="48" transform="rotate(0,136,1816)"/><rect x="112" y="1840" width="48" height="48" transform="rotate(0,136,1864)"/><rect x="160" y="1552" width="48" height="48" transform="rotate(0,184,1576)"/><rect x="160" y="1840" width="48" height="48" transform="rotate(0,184,1864)"/><rect x="208" y="1552" width="48" height="48" transform="rotate(0,232,1576)"/><rect x="208" y="1840" width="48" height="48" transform="rotate(0,232,1864)"/><rect x="256" y="1552" width="48" height="48" transform="rotate(0,280,1576)"/><rect x="256" y="1840" width="48" height="48" transform="rotate(0,280,1864)"/><rect x="304" y="1552" width="48" height="48" transform="rotate(0,328,1576)"/><rect x="304" y="1840" width="48" height="48" transform="rotate(0,328,1864)"/><rect x="352" y="1552" width="48" height="48" transform="rotate(0,376,1576)"/><rect x="352" y="1840" width="48" height="48" transform="rotate(0,376,1864)"/><rect x="400" y="1552" width="48" height="48" transform="rotate(0,424,1576)"/><rect x="400" y="1600" width="48" height="48" transform="rotate(0,424,1624)"/><rect x="400" y="1648" width="48" height="48" transform="rotate(0,424,1672)"/><rect x="400" y="1696" width="48" height="48" transform="rotate(0,424,1720)"/><rect x="400" y="1744" width="48" height="48" transform="rotate(0,424,1768)"/><rect x="400" y="1792" width="48" height="48" transform="rotate(0,424,1816)"/><rect x="400" y="1840" width="48" height="48" transform="rotate(0,424,1864)"/></clipPath><clipPath id="clip-path-corners-dot-color-0-1"><rect x="208" y="1648" width="48" height="48" transform="rotate(0,232,1672)"/><rect x="208" y="1696" width="48" height="48" transform="rotate(0,232,1720)"/><rect x="208" y="1744" width="48" height="48" transform="rotate(0,232,1768)"/><rect x="256" y="1648" width="48" height="48" transform="rotate(0,280,1672)"/><rect x="256" y="1696" width="48" height="48" transform="rotate(0,280,1720)"/><rect x="256" y="1744" width="48" height="48" transform="rotate(0,280,1768)"/><rect x="304" y="1648" width="48" height="48" transform="rotate(0,328,1672)"/><rect x="304" y="1696" width="48" height="48" transform="rotate(0,328,1720)"/><rect x="304" y="1744" width="48" height="48" transform="rotate(0,328,1768)"/></clipPath></defs><rect x="0" y="0" height="2000" width="2000" clip-path="url('#clip-path-background-color')" fill="#ffffff"/><rect x="112" y="112" height="1776" width="1776" clip-path="url('#clip-path-dot-color')" fill="#000000"/><rect x="112" y="112" height="336" width="336" clip-path="url('#clip-path-corners-square-color-0-0')" fill="#000000"/><rect x="208" y="208" height="144" width="144" clip-path="url('#clip-path-corners-dot-color-0-0')" fill="#000000"/><rect x="1552" y="112" height="336" width="336" clip-path="url('#clip-path-corners-square-color-1-0')" fill="#000000"/><rect x="1648" y="208" height="144" width="144" clip-path="url('#clip-path-corners-dot-color-1-0')" fill="#000000"/><rect x="112" y="1552" height="336" width="336" clip-path="url('#clip-path-corners-square-color-0-1')" fill="#000000"/><rect x="208" y="1648" height="144" width="144" clip-path="url('#clip-path-corners-dot-color-0-1')" fill="#000000"/></svg>